{
    "asset" : {
        "generator" : "Khronos glTF Blender I/O v1.2.75",
        "version" : "2.0"
    },
    "scene" : 0,
    "scenes" : [
        {
            "name" : "Scene",
            "nodes" : [
                0,
                1,
                2
            ]
        }
    ],
    "nodes" : [
        {
            "mesh" : 0,
            "name" : "cruise+ship",
            "translation" : [
                0,
                1.8929040431976318,
                0
            ]
        },
        {
            "name" : "Point",
            "translation" : [
                0.9682955145835876,
                0.7036158442497253,
                0.12200820446014404
            ]
        },
        {
            "name" : "Point.001",
            "translation" : [
                -1.1799309253692627,
                0.7036158442497253,
                0.9142619967460632
            ]
        }
    ],
    "materials" : [
        {
            "doubleSided" : true,
            "emissiveFactor" : [
                0,
                0,
                0
            ],
            "name" : "GOLD",
            "pbrMetallicRoughness" : {
                "baseColorFactor" : [
                    0.8000000715255737,
                    0.5455641150474548,
                    0,
                    1
                ],
                "metallicFactor" : 1,
                "roughnessFactor" : 0
            }
        }
    ],
    "meshes" : [
        {
            "name" : "cruise+ship",
            "primitives" : [
                {
                    "attributes" : {
                        "POSITION" : 0,
                        "NORMAL" : 1,
                        "TEXCOORD_0" : 2
                    },
                    "indices" : 3,
                    "material" : 0
                }
            ]
        }
    ],
    "accessors" : [
        {
            "bufferView" : 0,
            "componentType" : 5126,
            "count" : 16042,
            "max" : [
                1.317353367805481,
                1.4163055419921875,
                9.024374008178711
            ],
            "min" : [
                -1.2525765895843506,
                -2.0107197761535645,
                -11.068512916564941
            ],
            "type" : "VEC3"
        },
        {
            "bufferView" : 1,
            "componentType" : 5126,
            "count" : 16042,
            "type" : "VEC3"
        },
        {
            "bufferView" : 2,
            "componentType" : 5126,
            "count" : 16042,
            "type" : "VEC2"
        },
        {
            "bufferView" : 3,
            "componentType" : 5123,
            "count" : 28416,
            "type" : "SCALAR"
        }
    ],
    "bufferViews" : [
        {
            "buffer" : 0,
            "byteLength" : 192504,
            "byteOffset" : 0
        },
        {
            "buffer" : 0,
            "byteLength" : 192504,
            "byteOffset" : 192504
        },
        {
            "buffer" : 0,
            "byteLength" : 128336,
            "byteOffset" : 385008
        },
        {
            "buffer" : 0,
            "byteLength" : 56832,
            "byteOffset" : 513344
        }
    ],
    "buffers" : [
        {
            "byteLength" : 570176,
            "uri" : "data:application/octet-stream;base64,"
        }
    ]
}
